<svg width="163" height="39" viewBox="0 0 163 39" fill="none" xmlns="http://www.w3.org/2000/svg">
<path d="M33.75 14.625H24.25V4.875H33.75V14.625ZM26.625 12.1875H31.375V7.3125H26.625V12.1875Z" fill="#FF731D"/>
<path d="M20.6875 18.2812V10.9688H11.1875V28.0312H27.8125V18.2812H20.6875ZM13.5625 13.4062H18.3125V18.2812H13.5625V13.4062ZM18.3125 25.5938H13.5625V20.7188H18.3125V25.5938ZM25.4375 25.5938H20.6875V20.7188H25.4375V25.5938Z" fill="#FF731D"/>
<path d="M31.375 34.125H7.625C6.9953 34.1244 6.39158 33.8673 5.94632 33.4104C5.50105 32.9534 5.25063 32.3338 5.25 31.6875V7.3125C5.25063 6.66623 5.50105 6.04662 5.94632 5.58964C6.39158 5.13266 6.9953 4.87565 7.625 4.875H19.5V7.3125H7.625V31.6875H31.375V19.5H33.75V31.6875C33.7494 32.3338 33.4989 32.9534 33.0537 33.4104C32.6084 33.8673 32.0047 34.1244 31.375 34.125Z" fill="#FF731D"/>
<path d="M60.22 9.65V12.44H54.67V30.5H51.25V12.44H45.67V9.65H60.22ZM68.1036 16.37C68.6036 15.53 69.2636 14.88 70.0836 14.42C70.9236 13.94 71.9136 13.7 73.0536 13.7V17.24H72.1836C70.8436 17.24 69.8236 17.58 69.1236 18.26C68.4436 18.94 68.1036 20.12 68.1036 21.8V30.5H64.6836V13.97H68.1036V16.37ZM78.9373 11.78C78.3173 11.78 77.7973 11.57 77.3773 11.15C76.9573 10.73 76.7473 10.21 76.7473 9.59C76.7473 8.97 76.9573 8.45 77.3773 8.03C77.7973 7.61 78.3173 7.4 78.9373 7.4C79.5373 7.4 80.0473 7.61 80.4673 8.03C80.8873 8.45 81.0973 8.97 81.0973 9.59C81.0973 10.21 80.8873 10.73 80.4673 11.15C80.0473 11.57 79.5373 11.78 78.9373 11.78ZM80.6173 13.97V30.5H77.1973V13.97H80.6173ZM93.2774 30.77C91.7174 30.77 90.3074 30.42 89.0474 29.72C87.7874 29 86.7974 28 86.0774 26.72C85.3574 25.42 84.9974 23.92 84.9974 22.22C84.9974 20.54 85.3674 19.05 86.1074 17.75C86.8474 16.45 87.8574 15.45 89.1374 14.75C90.4174 14.05 91.8474 13.7 93.4274 13.7C95.0074 13.7 96.4374 14.05 97.7174 14.75C98.9974 15.45 100.007 16.45 100.747 17.75C101.487 19.05 101.857 20.54 101.857 22.22C101.857 23.9 101.477 25.39 100.717 26.69C99.9574 27.99 98.9174 29 97.5974 29.72C96.2974 30.42 94.8574 30.77 93.2774 30.77ZM93.2774 27.8C94.1574 27.8 94.9774 27.59 95.7374 27.17C96.5174 26.75 97.1474 26.12 97.6274 25.28C98.1074 24.44 98.3474 23.42 98.3474 22.22C98.3474 21.02 98.1174 20.01 97.6574 19.19C97.1974 18.35 96.5874 17.72 95.8274 17.3C95.0674 16.88 94.2474 16.67 93.3674 16.67C92.4874 16.67 91.6674 16.88 90.9074 17.3C90.1674 17.72 89.5774 18.35 89.1374 19.19C88.6974 20.01 88.4774 21.02 88.4774 22.22C88.4774 24 88.9274 25.38 89.8274 26.36C90.7474 27.32 91.8974 27.8 93.2774 27.8ZM109.658 16.4C110.238 15.64 111.028 15 112.028 14.48C113.028 13.96 114.158 13.7 115.418 13.7C116.858 13.7 118.168 14.06 119.348 14.78C120.548 15.48 121.488 16.47 122.168 17.75C122.848 19.03 123.188 20.5 123.188 22.16C123.188 23.82 122.848 25.31 122.168 26.63C121.488 27.93 120.548 28.95 119.348 29.69C118.168 30.41 116.858 30.77 115.418 30.77C114.158 30.77 113.038 30.52 112.058 30.02C111.078 29.5 110.278 28.86 109.658 28.1V38.36H106.238V13.97H109.658V16.4ZM119.708 22.16C119.708 21.02 119.468 20.04 118.988 19.22C118.528 18.38 117.908 17.75 117.128 17.33C116.368 16.89 115.548 16.67 114.668 16.67C113.808 16.67 112.988 16.89 112.208 17.33C111.448 17.77 110.828 18.41 110.348 19.25C109.888 20.09 109.658 21.08 109.658 22.22C109.658 23.36 109.888 24.36 110.348 25.22C110.828 26.06 111.448 26.7 112.208 27.14C112.988 27.58 113.808 27.8 114.668 27.8C115.548 27.8 116.368 27.58 117.128 27.14C117.908 26.68 118.528 26.02 118.988 25.16C119.468 24.3 119.708 23.3 119.708 22.16ZM142.54 13.97V30.5H139.12V28.55C138.58 29.23 137.87 29.77 136.99 30.17C136.13 30.55 135.21 30.74 134.23 30.74C132.93 30.74 131.76 30.47 130.72 29.93C129.7 29.39 128.89 28.59 128.29 27.53C127.71 26.47 127.42 25.19 127.42 23.69V13.97H130.81V23.18C130.81 24.66 131.18 25.8 131.92 26.6C132.66 27.38 133.67 27.77 134.95 27.77C136.23 27.77 137.24 27.38 137.98 26.6C138.74 25.8 139.12 24.66 139.12 23.18V13.97H142.54ZM154.053 30.77C152.753 30.77 151.583 30.54 150.543 30.08C149.523 29.6 148.713 28.96 148.113 28.16C147.513 27.34 147.193 26.43 147.153 25.43H150.693C150.753 26.13 151.083 26.72 151.683 27.2C152.303 27.66 153.073 27.89 153.993 27.89C154.953 27.89 155.693 27.71 156.213 27.35C156.753 26.97 157.023 26.49 157.023 25.91C157.023 25.29 156.723 24.83 156.123 24.53C155.543 24.23 154.613 23.9 153.333 23.54C152.093 23.2 151.083 22.87 150.303 22.55C149.523 22.23 148.843 21.74 148.263 21.08C147.703 20.42 147.423 19.55 147.423 18.47C147.423 17.59 147.683 16.79 148.203 16.07C148.723 15.33 149.463 14.75 150.423 14.33C151.403 13.91 152.523 13.7 153.783 13.7C155.663 13.7 157.173 14.18 158.313 15.14C159.473 16.08 160.093 17.37 160.173 19.01H156.753C156.693 18.27 156.393 17.68 155.853 17.24C155.313 16.8 154.583 16.58 153.663 16.58C152.763 16.58 152.073 16.75 151.593 17.09C151.113 17.43 150.873 17.88 150.873 18.44C150.873 18.88 151.033 19.25 151.353 19.55C151.673 19.85 152.063 20.09 152.523 20.27C152.983 20.43 153.663 20.64 154.563 20.9C155.763 21.22 156.743 21.55 157.503 21.89C158.283 22.21 158.953 22.69 159.513 23.33C160.073 23.97 160.363 24.82 160.383 25.88C160.383 26.82 160.123 27.66 159.603 28.4C159.083 29.14 158.343 29.72 157.383 30.14C156.443 30.56 155.333 30.77 154.053 30.77Z" fill="white"/>
</svg>
